<?xml version="1.0" standalone="no"?>
<!DOCTYPE svg PUBLIC "-//W3C//DTD SVG 20010904//EN"
 "http://www.w3.org/TR/2001/REC-SVG-20010904/DTD/svg10.dtd">
<svg version="1.0" xmlns="http://www.w3.org/2000/svg"
 width="60.000000pt" height="60.000000pt" viewBox="0 0 60.000000 60.000000"
 preserveAspectRatio="xMidYMid meet">

<g transform="translate(0.000000,60.000000) scale(0.100000,-0.100000)"
fill="#000000" stroke="none">
<path d="M265 544 c-16 -8 -38 -23 -47 -31 -15 -13 -18 -13 -18 -2 -1 24 -28
-34 -35 -73 -4 -21 -1 -54 5 -74 12 -36 12 -36 24 -12 9 15 10 29 3 42 -21 42
79 82 158 62 41 -10 66 -41 56 -69 -6 -14 -6 -29 0 -38 16 -26 30 12 25 68 -2
29 0 55 5 59 16 9 -1 24 -27 24 -13 0 -24 5 -24 10 0 6 5 10 11 10 5 0 7 5 3
11 -4 7 -25 10 -54 7 -38 -4 -47 -2 -43 9 7 17 -5 16 -42 -3z"/>
<path d="M175 228 c-8 -20 -12 -44 -9 -52 4 -10 -7 -23 -30 -38 -20 -13 -36
-26 -36 -30 0 -4 30 -25 68 -47 l67 -41 3 40 c4 54 22 51 22 -4 0 -48 19 -64
60 -51 16 5 20 15 20 52 0 61 16 51 19 -12 1 -22 4 -23 26 -15 41 16 105 62
105 76 0 7 -11 21 -25 30 -17 11 -24 23 -21 38 5 26 -19 86 -33 86 -16 0 -31
-35 -31 -70 0 -34 -48 -90 -77 -90 -23 0 -73 56 -73 82 0 13 -9 36 -20 53
l-19 29 -16 -36z"/>
</g>
</svg>
