<?xml version="1.0" standalone="no"?>
<!DOCTYPE svg PUBLIC "-//W3C//DTD SVG 20010904//EN"
 "http://www.w3.org/TR/2001/REC-SVG-20010904/DTD/svg10.dtd">
<svg version="1.0" xmlns="http://www.w3.org/2000/svg"
 width="60.000000pt" height="60.000000pt" viewBox="0 0 60.000000 60.000000"
 preserveAspectRatio="xMidYMid meet">

<g transform="translate(0.000000,60.000000) scale(0.100000,-0.100000)"
fill="#000000" stroke="none">
<path d="M195 526 c-95 -46 -150 -141 -143 -246 5 -61 34 -140 58 -155 13 -8
90 32 90 47 0 6 -8 20 -17 31 -41 45 0 232 57 262 36 19 61 19 104 1 29 -12
37 -23 55 -79 29 -85 30 -150 3 -186 -11 -15 -17 -32 -14 -37 8 -10 78 -44 92
-44 16 0 69 103 76 146 11 72 -19 151 -79 209 -81 79 -185 98 -282 51z"/>
<path d="M341 216 c-11 -13 -11 -20 -3 -28 8 -8 13 -7 18 5 10 27 0 41 -15 23z"/>
<path d="M230 200 c0 -13 5 -20 13 -17 6 2 12 10 12 17 0 7 -6 15 -12 18 -8 2
-13 -5 -13 -18z"/>
</g>
</svg>
