<?xml version="1.0" standalone="no"?>
<!DOCTYPE svg PUBLIC "-//W3C//DTD SVG 20010904//EN"
 "http://www.w3.org/TR/2001/REC-SVG-20010904/DTD/svg10.dtd">
<svg version="1.0" xmlns="http://www.w3.org/2000/svg"
 width="60.000000pt" height="60.000000pt" viewBox="0 0 60.000000 60.000000"
 preserveAspectRatio="xMidYMid meet">

<g transform="translate(0.000000,60.000000) scale(0.100000,-0.100000)"
fill="#000000" stroke="none">
<path d="M271 544 c-11 -8 -21 -24 -21 -35 0 -10 -14 -32 -31 -47 -27 -24 -32
-37 -40 -102 -13 -98 -13 -91 -5 -121 6 -20 3 -28 -16 -37 l-23 -11 26 0 c36
-1 49 17 49 66 0 24 4 43 8 43 13 0 32 48 32 81 0 48 27 48 71 1 21 -23 43
-42 49 -42 5 0 10 -22 10 -48 0 -38 5 -53 23 -70 29 -28 54 -29 27 -2 -21 21
-27 65 -10 75 6 3 10 34 10 67 0 58 -2 63 -40 99 -22 21 -40 45 -40 52 0 32
-50 51 -79 31z"/>
<path d="M149 162 c-30 -15 -54 -34 -54 -42 0 -22 92 -78 150 -91 44 -10 66
-10 110 0 61 14 150 68 150 91 0 17 -90 69 -120 70 -10 0 -34 -14 -52 -31
l-32 -32 -36 32 c-20 17 -42 31 -49 31 -8 0 -38 -13 -67 -28z"/>
</g>
</svg>
