<?xml version="1.0" standalone="no"?>
<!DOCTYPE svg PUBLIC "-//W3C//DTD SVG 20010904//EN"
 "http://www.w3.org/TR/2001/REC-SVG-20010904/DTD/svg10.dtd">
<svg version="1.0" xmlns="http://www.w3.org/2000/svg"
 width="60.000000pt" height="60.000000pt" viewBox="0 0 60.000000 60.000000"
 preserveAspectRatio="xMidYMid meet">

<g transform="translate(0.000000,60.000000) scale(0.100000,-0.100000)"
fill="#000000" stroke="none">
<path d="M275 580 c-3 -11 -13 -20 -21 -20 -8 0 -14 -10 -14 -25 0 -16 6 -25
15 -25 24 0 17 -28 -7 -32 -19 -2 -23 -9 -21 -33 11 -133 11 -176 2 -218 -6
-26 -15 -49 -19 -52 -4 -3 -13 18 -20 46 -11 43 -10 52 4 68 14 15 14 20 2 36
-10 14 -11 25 -3 42 7 17 6 28 -7 47 -22 34 -59 43 -92 21 -23 -15 -26 -22
-21 -61 2 -24 1 -44 -4 -44 -13 0 -11 -38 2 -46 24 -14 -12 -134 -54 -181 -10
-11 -17 -29 -15 -40 3 -15 14 -18 70 -21 56 -2 67 -6 71 -22 5 -19 15 -20 157
-20 142 0 152 1 157 20 4 16 15 20 71 22 56 3 67 6 70 21 2 11 -5 29 -15 40
-42 47 -78 167 -54 181 13 8 15 46 2 46 -5 0 -6 20 -4 44 5 39 2 46 -21 61
-33 22 -70 13 -92 -21 -13 -19 -14 -30 -7 -47 8 -17 7 -28 -3 -42 -12 -16 -12
-21 2 -36 14 -16 15 -25 4 -68 -7 -28 -16 -49 -20 -46 -4 3 -13 26 -19 52 -9
42 -9 85 2 218 2 24 -2 31 -20 33 -25 4 -32 32 -8 32 9 0 15 9 15 25 0 15 -6
25 -14 25 -8 0 -18 9 -21 20 -3 11 -15 20 -25 20 -10 0 -22 -9 -25 -20z m55
-43 c12 -4 12 -6 -2 -6 -9 -1 -21 -13 -26 -28 l-10 -28 -1 28 c-1 18 -7 27
-18 28 -17 1 -17 2 0 6 9 2 17 12 17 21 0 14 1 14 13 0 6 -9 19 -18 27 -21z
m7 -83 c19 -5 20 -9 11 -30 -9 -19 -19 -24 -49 -24 -37 0 -59 18 -59 49 0 12
61 15 97 5z m-173 -40 c20 -20 20 -38 0 -59 -21 -21 -53 -16 -70 10 -12 18
-11 24 2 43 18 26 46 28 68 6z m334 4 c7 -7 12 -21 12 -33 0 -44 -60 -63 -80
-26 -14 27 -13 37 6 55 18 19 45 21 62 4z m-180 -55 c-10 -2 -26 -2 -35 0 -10
3 -2 5 17 5 19 0 27 -2 18 -5z m-138 -53 c0 -5 -22 -10 -50 -10 -27 0 -50 5
-50 10 0 6 23 10 50 10 28 0 50 -4 50 -10z m340 0 c0 -5 -22 -10 -50 -10 -27
0 -50 5 -50 10 0 6 23 10 50 10 28 0 50 -4 50 -10z m-202 -16 c15 -4 22 -14
22 -30 0 -13 7 -44 16 -70 20 -58 13 -64 -75 -64 -56 0 -62 2 -55 18 5 12 37
120 43 150 1 4 25 2 49 -4z m-150 -61 c6 -27 14 -56 17 -65 6 -16 0 -18 -52
-18 l-59 0 16 65 c14 59 17 65 41 65 22 0 27 -6 37 -47z m342 -18 l16 -65 -59
0 c-52 0 -58 2 -52 17 3 10 11 39 16 65 10 43 14 48 37 48 25 0 28 -5 42 -65z
m-332 -102 c-3 -15 -16 -19 -70 -21 -63 -3 -66 -2 -61 18 5 17 13 20 70 20 56
0 64 -2 61 -17z m370 -6 c3 -16 -3 -18 -60 -15 -51 2 -63 6 -66 21 -3 16 3 18
60 15 51 -2 63 -6 66 -21z m-148 -6 c0 -5 3 -16 6 -25 5 -14 -8 -16 -110 -16
l-116 0 12 25 c11 24 14 25 110 25 54 0 98 -4 98 -9z m-283 -38 c-20 -2 -52
-2 -70 0 -17 2 0 4 38 4 39 0 53 -2 32 -4z m426 0 c-18 -2 -48 -2 -65 0 -18 2
-4 4 32 4 36 0 50 -2 33 -4z"/>
</g>
</svg>
