<?xml version="1.0" standalone="no"?>
<!DOCTYPE svg PUBLIC "-//W3C//DTD SVG 20010904//EN"
 "http://www.w3.org/TR/2001/REC-SVG-20010904/DTD/svg10.dtd">
<svg version="1.0" xmlns="http://www.w3.org/2000/svg"
 width="60.000000pt" height="60.000000pt" viewBox="0 0 60.000000 60.000000"
 preserveAspectRatio="xMidYMid meet">

<g transform="translate(0.000000,60.000000) scale(0.100000,-0.100000)"
fill="#000000" stroke="none">
<path d="M333 438 c-15 -19 -96 -268 -89 -275 16 -17 35 18 75 137 27 83 40
135 34 141 -6 6 -14 5 -20 -3z"/>
<path d="M153 340 c-35 -16 -63 -34 -63 -40 0 -14 128 -73 140 -65 20 12 9 27
-30 42 -22 9 -40 19 -40 23 0 4 18 15 41 24 37 15 48 35 23 43 -5 2 -37 -10
-71 -27z"/>
<path d="M367 363 c-13 -13 -7 -20 33 -38 22 -10 40 -21 40 -25 0 -4 -18 -14
-40 -23 -39 -15 -50 -30 -30 -42 12 -7 140 51 140 64 0 19 -130 78 -143 64z"/>
</g>
</svg>
