<?xml version="1.0" standalone="no"?>
<!DOCTYPE svg PUBLIC "-//W3C//DTD SVG 20010904//EN"
 "http://www.w3.org/TR/2001/REC-SVG-20010904/DTD/svg10.dtd">
<svg version="1.0" xmlns="http://www.w3.org/2000/svg"
 width="60.000000pt" height="60.000000pt" viewBox="0 0 60.000000 60.000000"
 preserveAspectRatio="xMidYMid meet">

<g transform="translate(0.000000,60.000000) scale(0.100000,-0.100000)"
fill="#000000" stroke="none">
<path d="M191 578 c-34 -13 -73 -39 -101 -67 -145 -145 -106 -388 78 -478 74
-36 182 -39 253 -6 60 27 125 92 152 152 33 71 30 179 -6 253 -68 139 -231
202 -376 146z m226 -39 c82 -40 153 -150 153 -239 0 -35 -24 -115 -44 -145
-15 -23 -16 -23 -73 -8 -32 8 -66 22 -76 32 -17 17 -17 20 18 71 32 47 35 58
30 99 -14 112 -14 111 -63 142 -25 16 -55 29 -65 29 -11 0 -40 -16 -63 -36
-40 -32 -44 -40 -44 -79 0 -24 -5 -55 -11 -68 -10 -21 -6 -32 24 -80 34 -53
35 -57 19 -76 -9 -11 -43 -26 -74 -34 l-58 -15 -20 32 c-70 114 -37 266 75
352 73 56 184 65 272 23z m-74 -160 c44 -9 57 -16 57 -30 0 -9 6 -19 12 -21
17 -6 -48 -112 -78 -128 -36 -20 -71 -4 -109 48 -35 48 -43 76 -25 87 6 3 10
17 10 31 0 21 4 24 38 24 21 0 64 -5 95 -11z m23 -213 c8 -24 -28 -56 -62 -56
-31 0 -72 19 -79 38 -10 26 12 37 74 37 52 0 62 -3 67 -19z"/>
</g>
</svg>
